<?xml version="1.0" standalone="no"?>
<!DOCTYPE svg PUBLIC "-//W3C//DTD SVG 20010904//EN"
 "http://www.w3.org/TR/2001/REC-SVG-20010904/DTD/svg10.dtd">
<svg version="1.0" xmlns="http://www.w3.org/2000/svg"
 width="150.000000pt" height="150.000000pt" viewBox="0 0 150.000000 150.000000"
 preserveAspectRatio="xMidYMid meet">
<metadata>
Created by potrace 1.11, written by Peter Selinger 2001-2013
</metadata>
<g transform="translate(0.000000,150.000000) scale(0.100000,-0.100000)"
fill="#000000" stroke="none">
<path d="M427 1314 l-307 -154 0 -375 0 -375 25 -12 c14 -6 25 -16 25 -21 0
-6 3 -8 6 -4 9 9 166 -72 159 -82 -3 -5 3 -7 13 -4 11 2 25 -1 33 -9 8 -7 21
-14 28 -16 30 -6 120 -59 114 -66 -4 -4 0 -4 10 0 10 3 17 1 17 -6 0 -6 5 -8
10 -5 6 3 10 1 10 -5 0 -6 5 -8 10 -5 6 3 10 1 10 -5 0 -6 5 -8 10 -5 6 3 10
1 10 -6 0 -7 3 -9 6 -6 9 9 46 -12 39 -23 -3 -4 4 -6 15 -3 12 3 20 0 20 -6 0
-7 5 -9 10 -6 5 3 10 -2 10 -12 0 -15 2 -16 10 -3 5 8 10 10 10 4 0 -13 31
-14 48 -1 6 5 12 6 12 2 0 -5 9 0 19 9 11 10 25 15 32 10 8 -5 10 -3 4 6 -6
10 -4 12 8 7 10 -3 17 -3 17 1 0 5 18 18 40 30 23 12 37 16 33 9 -4 -7 8 1 27
17 19 15 36 24 38 18 2 -6 15 1 29 14 20 19 28 21 35 12 5 -9 8 -7 8 6 0 11 3
17 6 13 4 -3 13 1 21 9 8 8 19 12 24 9 5 -4 9 -3 9 2 0 4 11 13 25 20 19 8 24
8 19 0 -3 -7 2 -3 10 7 9 11 16 16 16 10 0 -5 4 -4 8 2 10 16 93 55 86 41 -3
-7 1 -4 8 5 8 9 21 18 28 20 39 8 40 15 40 395 0 202 -4 373 -8 379 -9 14
-607 314 -624 313 -7 0 -151 -70 -321 -155z"/>
</g>
</svg>
